<svg width="192" height="276" viewBox="0 0 192 276" fill="none" xmlns="http://www.w3.org/2000/svg">
<g clip-path="url(#clip0_131_170)">
<rect width="276" height="192" transform="translate(1.20643e-05 276) rotate(-90)" fill="#161616"/>
<circle cx="265" cy="138" r="241" transform="rotate(-90 265 138)" fill="#264B5E" fill-opacity="0.61"/>
<g filter="url(#filter0_d_131_170)">
<rect x="29" y="27" width="238" height="349" rx="9.08" fill="#1D5B7D"/>
</g>
<rect x="39" y="39" width="60" height="42" rx="5" fill="#70CDFF"/>
<rect x="39" y="243" width="160" height="24" rx="5" fill="#70CDFF"/>
<rect x="107" y="39" width="60" height="42" rx="5" fill="#70CDFF" fill-opacity="0.2"/>
<rect x="175" y="39" width="60" height="42" rx="5" fill="#70CDFF" fill-opacity="0.2"/>
<rect x="39" y="112" width="192" height="19" rx="5" fill="#70CDFF" fill-opacity="0.2"/>
<rect x="39" y="99" width="37" height="6" rx="3" fill="#70CDFF" fill-opacity="0.5"/>
<rect x="39" y="206" width="192" height="19" rx="5" fill="#70CDFF" fill-opacity="0.2"/>
<rect x="39" y="193" width="37" height="6" rx="3" fill="#70CDFF" fill-opacity="0.5"/>
<rect x="90" y="252" width="57" height="6" rx="3" fill="#1D5B7D"/>
<rect x="52" y="63" width="34" height="6" rx="3" fill="#1D5B7D"/>
<rect x="39" y="159" width="77" height="19" rx="5" fill="#70CDFF" fill-opacity="0.2"/>
<rect x="39" y="146" width="37" height="6" rx="3" fill="#70CDFF" fill-opacity="0.5"/>
<rect x="128" y="159" width="77" height="19" rx="5" fill="#70CDFF" fill-opacity="0.2"/>
<rect x="128" y="146" width="37" height="6" rx="3" fill="#70CDFF" fill-opacity="0.5"/>
<circle cx="69" cy="55" r="5" fill="#1D5B7D"/>
<rect x="120" y="63" width="34" height="6" rx="3" fill="#70CDFF"/>
<circle cx="137" cy="55" r="5" fill="#70CDFF"/>
<rect x="188" y="63" width="34" height="6" rx="3" fill="#70CDFF"/>
</g>
<defs>
<filter id="filter0_d_131_170" x="5.29251" y="6.92583" width="285.415" height="396.415" filterUnits="userSpaceOnUse" color-interpolation-filters="sRGB">
<feFlood flood-opacity="0" result="BackgroundImageFix"/>
<feColorMatrix in="SourceAlpha" type="matrix" values="0 0 0 0 0 0 0 0 0 0 0 0 0 0 0 0 0 0 127 0" result="hardAlpha"/>
<feOffset dy="3.63333"/>
<feGaussianBlur stdDeviation="11.8538"/>
<feComposite in2="hardAlpha" operator="out"/>
<feColorMatrix type="matrix" values="0 0 0 0 0 0 0 0 0 0 0 0 0 0 0 0 0 0 0.1 0"/>
<feBlend mode="normal" in2="BackgroundImageFix" result="effect1_dropShadow_131_170"/>
<feBlend mode="normal" in="SourceGraphic" in2="effect1_dropShadow_131_170" result="shape"/>
</filter>
<clipPath id="clip0_131_170">
<rect width="276" height="192" fill="white" transform="translate(1.20643e-05 276) rotate(-90)"/>
</clipPath>
</defs>
</svg>
