<svg width="346" height="496" viewBox="0 0 346 496" fill="none" xmlns="http://www.w3.org/2000/svg">
<g clip-path="url(#clip0_86_478)">
<circle cx="476.415" cy="247.95" r="433.013" transform="rotate(-90 476.415 247.95)" fill="#D9ECF6"/>
<g filter="url(#filter0_d_86_478)">
<rect x="88.3206" y="289.274" width="431.217" height="276.697" rx="17.9674" fill="white"/>
</g>
<g filter="url(#filter1_d_86_478)">
<rect x="88.3206" y="-100.617" width="431.217" height="276.697" rx="17.9674" fill="white"/>
</g>
<path d="M224.873 176.08V289.274" stroke="url(#paint0_linear_86_478)" stroke-width="3.59347"/>
<rect x="156.596" y="210.218" width="134.755" height="43.1217" rx="16.9433" fill="#70CDFF"/>
<path d="M204.098 229.46C203.526 228.427 202.724 227.606 201.692 226.998C200.659 226.389 199.452 226.085 198.069 226.085C196.686 226.085 195.4 226.403 194.321 227.039C193.242 227.675 192.407 228.551 191.818 229.667C191.227 230.782 190.933 232.069 190.933 233.525C190.933 234.981 191.233 236.194 191.831 237.273C192.43 238.351 193.27 239.191 194.349 239.789C195.427 240.388 196.667 240.689 198.068 240.689C199.156 240.689 200.142 240.486 201.027 240.08C201.912 239.674 202.66 239.122 203.268 238.421C203.785 237.825 204.176 237.17 204.44 236.456C204.509 236.269 204.374 236.07 204.174 236.07H201.416C201.239 236.07 201.026 236.199 200.936 236.351C200.418 237.225 199.3 237.776 198.108 237.776C196.286 237.776 194.436 236.357 194.343 234.301H204.649C204.794 234.301 204.918 234.191 204.932 234.047C204.948 233.894 204.955 233.168 204.955 232.973C204.955 231.663 204.669 230.493 204.098 229.46ZM198.108 229.091C199.811 229.091 201.438 230.218 201.679 231.914H194.439C194.777 230.089 196.406 229.091 198.108 229.091Z" fill="white"/>
<path d="M226.119 221H223.497C223.19 221 222.941 221.249 222.941 221.556V239.801C222.941 240.108 223.19 240.357 223.497 240.357H226.119C226.426 240.357 226.675 240.108 226.675 239.801V221.556C226.675 221.249 226.426 221 226.119 221Z" fill="white"/>
<path d="M239.87 226.819C239.077 226.33 238.1 226.086 236.938 226.086C235.924 226.086 235.047 226.328 234.269 226.75C233.064 227.403 232.555 228.219 232.555 228.219H232.429V221.555C232.429 221.248 232.18 220.999 231.873 220.999H229.25C228.943 220.999 228.694 221.248 228.694 221.555V239.8C228.694 240.107 228.943 240.356 229.25 240.356H231.873C232.18 240.356 232.429 240.107 232.429 239.8V232.972C232.429 232.197 232.572 231.528 232.858 230.966C233.144 230.404 233.535 229.976 234.034 229.68C234.531 229.385 235.084 229.238 235.692 229.238C236.689 229.238 237.416 229.538 237.877 230.136C238.338 230.736 238.568 231.589 238.568 232.695V239.8C238.568 240.107 238.817 240.356 239.124 240.356H241.719C242.027 240.356 242.276 240.107 242.276 239.8V232.363C242.276 230.999 242.073 229.856 241.667 228.933C241.262 228.011 240.662 227.306 239.87 226.817V226.819Z" fill="white"/>
<path d="M246.409 239.955C247.201 240.444 248.179 240.688 249.34 240.688C250.354 240.688 251.231 240.446 252.009 240.024C253.214 239.371 253.764 238.448 253.764 238.448H253.889L254.22 239.801C254.293 240.105 254.469 240.357 254.777 240.357L257.026 240.368C257.333 240.368 257.582 240.119 257.582 239.812V226.973C257.582 226.666 257.333 226.417 257.026 226.417H254.403C254.096 226.417 253.847 226.666 253.847 226.973V233.801C253.847 234.576 253.704 235.245 253.418 235.807C253.132 236.369 252.741 236.797 252.243 237.093C251.745 237.388 251.192 237.535 250.584 237.535C249.587 237.535 248.86 237.235 248.399 236.637C247.938 236.037 247.708 235.184 247.708 234.078V226.973C247.708 226.666 247.459 226.417 247.152 226.417H244.557C244.25 226.417 244 226.666 244 226.973V234.41C244 235.774 244.203 236.917 244.609 237.84C245.014 238.762 245.614 239.467 246.407 239.956L246.409 239.955Z" fill="white"/>
<path d="M185.737 221.556V228.22H185.611C185.605 228.209 185.192 227.265 183.911 226.64C183.155 226.272 182.28 226.087 181.284 226.087C180.012 226.087 178.864 226.405 177.841 227.04C176.817 227.676 176.015 228.544 175.435 229.64C174.854 230.738 174.564 231.996 174.564 233.416C174.564 234.836 174.849 236.043 175.421 237.15C175.992 238.256 176.781 239.123 177.786 239.75C178.791 240.376 179.929 240.69 181.201 240.69C181.976 240.69 182.649 240.588 183.22 240.386C184.955 239.771 185.612 238.451 185.612 238.451H185.738L186.057 239.921C186.113 240.177 186.339 240.359 186.601 240.359H188.915C189.223 240.359 189.472 240.11 189.472 239.803V221.558C189.472 221.251 189.223 221.002 188.915 221.002H186.294C185.987 221.002 185.738 221.251 185.738 221.558L185.737 221.556ZM181.853 237.542C179.568 237.542 177.716 235.652 177.716 233.32C177.716 230.989 179.568 229.099 181.853 229.099C184.138 229.099 185.99 230.989 185.99 233.32C185.99 235.652 184.138 237.542 181.853 237.542Z" fill="white"/>
<path d="M217.406 226.973L217.233 228.219H217.108C217.101 228.208 216.688 227.264 215.407 226.638C214.651 226.27 213.776 226.085 212.78 226.085C211.508 226.085 210.36 226.403 209.337 227.039C208.313 227.675 207.511 228.542 206.931 229.639C206.35 230.737 206.06 231.995 206.06 233.415C206.06 234.834 206.345 236.042 206.917 237.149C207.488 238.254 208.277 239.122 209.282 239.749C210.287 240.375 211.425 240.689 212.697 240.689C213.472 240.689 214.145 240.587 214.716 240.385C216.451 239.769 217.109 238.449 217.109 238.449H217.234L217.554 239.92C217.609 240.176 217.835 240.358 218.097 240.358H220.411C220.719 240.358 220.968 240.109 220.968 239.802V226.974C220.968 226.667 220.719 226.418 220.411 226.418H217.963C217.656 226.418 217.407 226.667 217.407 226.974L217.406 226.973ZM213.348 237.542C211.063 237.542 209.211 235.651 209.211 233.32C209.211 230.989 211.063 229.099 213.348 229.099C215.633 229.099 217.485 230.989 217.485 233.32C217.485 235.651 215.633 237.542 213.348 237.542Z" fill="white"/>
<path d="M262.762 221H260.14C259.833 221 259.584 221.249 259.584 221.556V239.801C259.584 240.108 259.833 240.357 260.14 240.357H262.455C262.717 240.357 262.942 240.175 262.998 239.919L263.318 238.448H263.443C263.443 238.448 264.101 239.77 265.835 240.384C266.406 240.587 267.08 240.688 267.855 240.688C269.126 240.688 270.266 240.374 271.27 239.748C272.275 239.122 273.063 238.254 273.634 237.148C274.206 236.041 274.492 234.797 274.492 233.414C274.492 231.994 274.201 230.736 273.621 229.638C273.04 228.542 272.237 227.674 271.215 227.038C270.192 226.402 269.044 226.084 267.772 226.084C266.776 226.084 265.9 226.268 265.144 226.638C263.863 227.263 263.451 228.207 263.444 228.218H263.319V221.555C263.319 221.248 263.07 220.999 262.763 220.999L262.762 221ZM263.065 233.32C263.065 230.989 264.917 229.099 267.202 229.099C269.487 229.099 271.339 230.989 271.339 233.32C271.339 235.651 269.487 237.542 267.202 237.542C264.917 237.542 263.065 235.651 263.065 233.32Z" fill="white"/>
<rect x="118.865" y="21.5608" width="210.218" height="125.772" rx="17.9674" fill="#EAF8FF"/>
<rect x="118.865" y="318.022" width="321.616" height="125.772" rx="17.9674" fill="#EAF8FF"/>
<rect x="118.865" y="465.354" width="181.47" height="125.772" rx="17.9674" fill="#EAF8FF"/>
<rect x="329.083" y="465.354" width="181.47" height="125.772" rx="17.9674" fill="#EAF8FF"/>
</g>
<defs>
<filter id="filter0_d_86_478" x="41.4258" y="249.567" width="525.006" height="370.487" filterUnits="userSpaceOnUse" color-interpolation-filters="sRGB">
<feFlood flood-opacity="0" result="BackgroundImageFix"/>
<feColorMatrix in="SourceAlpha" type="matrix" values="0 0 0 0 0 0 0 0 0 0 0 0 0 0 0 0 0 0 127 0" result="hardAlpha"/>
<feOffset dy="7.18694"/>
<feGaussianBlur stdDeviation="23.4474"/>
<feComposite in2="hardAlpha" operator="out"/>
<feColorMatrix type="matrix" values="0 0 0 0 0 0 0 0 0 0 0 0 0 0 0 0 0 0 0.1 0"/>
<feBlend mode="normal" in2="BackgroundImageFix" result="effect1_dropShadow_86_478"/>
<feBlend mode="normal" in="SourceGraphic" in2="effect1_dropShadow_86_478" result="shape"/>
</filter>
<filter id="filter1_d_86_478" x="41.4258" y="-140.325" width="525.006" height="370.487" filterUnits="userSpaceOnUse" color-interpolation-filters="sRGB">
<feFlood flood-opacity="0" result="BackgroundImageFix"/>
<feColorMatrix in="SourceAlpha" type="matrix" values="0 0 0 0 0 0 0 0 0 0 0 0 0 0 0 0 0 0 127 0" result="hardAlpha"/>
<feOffset dy="7.18694"/>
<feGaussianBlur stdDeviation="23.4474"/>
<feComposite in2="hardAlpha" operator="out"/>
<feColorMatrix type="matrix" values="0 0 0 0 0 0 0 0 0 0 0 0 0 0 0 0 0 0 0.1 0"/>
<feBlend mode="normal" in2="BackgroundImageFix" result="effect1_dropShadow_86_478"/>
<feBlend mode="normal" in="SourceGraphic" in2="effect1_dropShadow_86_478" result="shape"/>
</filter>
<linearGradient id="paint0_linear_86_478" x1="225.373" y1="176.08" x2="225.373" y2="289.274" gradientUnits="userSpaceOnUse">
<stop stop-color="#00A6FF" stop-opacity="0"/>
<stop offset="0.504808" stop-color="#00A6FF"/>
<stop offset="1" stop-color="#00A6FF" stop-opacity="0"/>
</linearGradient>
<clipPath id="clip0_86_478">
<rect width="495.899" height="344.973" fill="white" transform="translate(0.280518 495.899) rotate(-90)"/>
</clipPath>
</defs>
</svg>
