<svg width="346" height="496" viewBox="0 0 346 496" fill="none" xmlns="http://www.w3.org/2000/svg">
<g clip-path="url(#clip0_86_561)">
<circle cx="476.626" cy="247.95" r="433.013" transform="rotate(-90 476.626 247.95)" fill="#264B5E" fill-opacity="0.61"/>
<g filter="url(#filter0_d_86_561)">
<rect x="88.5312" y="289.274" width="431.217" height="276.697" rx="17.9674" fill="#1D5B7D"/>
</g>
<g filter="url(#filter1_d_86_561)">
<rect x="88.5312" y="-100.617" width="431.217" height="276.697" rx="17.9674" fill="#1D5B7D"/>
</g>
<path d="M225.083 176.08V289.274" stroke="url(#paint0_linear_86_561)" stroke-width="3.59347"/>
<rect x="156.807" y="210.218" width="134.755" height="43.1217" rx="16.9433" fill="#70CDFF"/>
<path d="M204.309 229.46C203.737 228.427 202.935 227.606 201.903 226.998C200.87 226.389 199.663 226.085 198.28 226.085C196.897 226.085 195.611 226.403 194.532 227.039C193.453 227.675 192.618 228.551 192.029 229.667C191.438 230.782 191.144 232.069 191.144 233.525C191.144 234.981 191.444 236.194 192.042 237.273C192.641 238.351 193.481 239.191 194.56 239.789C195.638 240.388 196.878 240.689 198.279 240.689C199.367 240.689 200.353 240.486 201.238 240.08C202.123 239.674 202.871 239.122 203.479 238.421C203.996 237.825 204.387 237.17 204.651 236.456C204.719 236.269 204.585 236.07 204.385 236.07H201.627C201.45 236.07 201.237 236.199 201.147 236.351C200.629 237.225 199.511 237.776 198.319 237.776C196.497 237.776 194.647 236.357 194.554 234.301H204.86C205.005 234.301 205.129 234.191 205.143 234.047C205.159 233.894 205.166 233.168 205.166 232.973C205.166 231.663 204.88 230.493 204.309 229.46ZM198.319 229.091C200.022 229.091 201.649 230.218 201.89 231.914H194.65C194.988 230.089 196.617 229.091 198.319 229.091Z" fill="white"/>
<path d="M226.329 221H223.708C223.4 221 223.151 221.249 223.151 221.556V239.801C223.151 240.108 223.4 240.357 223.708 240.357H226.329C226.636 240.357 226.885 240.108 226.885 239.801V221.556C226.885 221.249 226.636 221 226.329 221Z" fill="white"/>
<path d="M240.081 226.819C239.288 226.33 238.31 226.086 237.149 226.086C236.135 226.086 235.258 226.328 234.48 226.75C233.275 227.403 232.766 228.219 232.766 228.219H232.64V221.555C232.64 221.248 232.391 220.999 232.084 220.999H229.461C229.154 220.999 228.905 221.248 228.905 221.555V239.8C228.905 240.107 229.154 240.356 229.461 240.356H232.084C232.391 240.356 232.64 240.107 232.64 239.8V232.972C232.64 232.197 232.783 231.528 233.069 230.966C233.355 230.404 233.746 229.976 234.245 229.68C234.742 229.385 235.295 229.238 235.903 229.238C236.9 229.238 237.627 229.538 238.088 230.136C238.549 230.736 238.779 231.589 238.779 232.695V239.8C238.779 240.107 239.028 240.356 239.335 240.356H241.93C242.238 240.356 242.487 240.107 242.487 239.8V232.363C242.487 230.999 242.284 229.856 241.878 228.933C241.473 228.011 240.873 227.306 240.081 226.817V226.819Z" fill="white"/>
<path d="M246.619 239.955C247.411 240.444 248.389 240.688 249.551 240.688C250.565 240.688 251.442 240.446 252.22 240.024C253.425 239.371 253.974 238.448 253.974 238.448H254.099L254.431 239.801C254.504 240.105 254.68 240.357 254.987 240.357L257.237 240.368C257.544 240.368 257.793 240.119 257.793 239.812V226.973C257.793 226.666 257.544 226.417 257.237 226.417H254.614C254.307 226.417 254.058 226.666 254.058 226.973V233.801C254.058 234.576 253.915 235.245 253.628 235.807C253.343 236.369 252.951 236.797 252.453 237.093C251.956 237.388 251.403 237.535 250.794 237.535C249.798 237.535 249.07 237.235 248.61 236.637C248.149 236.037 247.918 235.184 247.918 234.078V226.973C247.918 226.666 247.669 226.417 247.362 226.417H244.767C244.46 226.417 244.211 226.666 244.211 226.973V234.41C244.211 235.774 244.414 236.917 244.819 237.84C245.225 238.762 245.824 239.467 246.617 239.956L246.619 239.955Z" fill="white"/>
<path d="M185.947 221.556V228.22H185.822C185.815 228.209 185.403 227.265 184.122 226.64C183.366 226.272 182.491 226.087 181.494 226.087C180.222 226.087 179.075 226.405 178.052 227.04C177.028 227.676 176.226 228.544 175.646 229.64C175.065 230.738 174.774 231.996 174.774 233.416C174.774 234.836 175.06 236.043 175.632 237.15C176.203 238.256 176.991 239.123 177.997 239.75C179.002 240.376 180.14 240.69 181.412 240.69C182.187 240.69 182.86 240.588 183.431 240.386C185.166 239.771 185.823 238.451 185.823 238.451H185.948L186.268 239.921C186.323 240.177 186.55 240.359 186.812 240.359H189.126C189.433 240.359 189.682 240.11 189.682 239.803V221.558C189.682 221.251 189.433 221.002 189.126 221.002H186.504C186.197 221.002 185.948 221.251 185.948 221.558L185.947 221.556ZM182.063 237.542C179.778 237.542 177.927 235.652 177.927 233.32C177.927 230.989 179.778 229.099 182.063 229.099C184.348 229.099 186.2 230.989 186.2 233.32C186.2 235.652 184.348 237.542 182.063 237.542Z" fill="white"/>
<path d="M217.617 226.973L217.444 228.219H217.319C217.312 228.208 216.899 227.264 215.619 226.638C214.863 226.27 213.987 226.085 212.991 226.085C211.719 226.085 210.571 226.403 209.548 227.039C208.524 227.675 207.722 228.542 207.142 229.639C206.561 230.737 206.271 231.995 206.271 233.415C206.271 234.834 206.556 236.042 207.128 237.149C207.699 238.254 208.488 239.122 209.493 239.749C210.498 240.375 211.636 240.689 212.908 240.689C213.683 240.689 214.356 240.587 214.927 240.385C216.662 239.769 217.32 238.449 217.32 238.449H217.445L217.765 239.92C217.82 240.176 218.046 240.358 218.308 240.358H220.623C220.93 240.358 221.179 240.109 221.179 239.802V226.974C221.179 226.667 220.93 226.418 220.623 226.418H218.174C217.867 226.418 217.618 226.667 217.618 226.974L217.617 226.973ZM213.559 237.542C211.274 237.542 209.422 235.651 209.422 233.32C209.422 230.989 211.274 229.099 213.559 229.099C215.844 229.099 217.696 230.989 217.696 233.32C217.696 235.651 215.844 237.542 213.559 237.542Z" fill="white"/>
<path d="M262.973 221H260.351C260.044 221 259.795 221.249 259.795 221.556V239.801C259.795 240.108 260.044 240.357 260.351 240.357H262.666C262.928 240.357 263.153 240.175 263.209 239.919L263.529 238.448H263.654C263.654 238.448 264.312 239.77 266.046 240.384C266.617 240.587 267.291 240.688 268.065 240.688C269.337 240.688 270.476 240.374 271.481 239.748C272.486 239.122 273.274 238.254 273.845 237.148C274.417 236.041 274.703 234.797 274.703 233.414C274.703 231.994 274.412 230.736 273.832 229.638C273.251 228.542 272.448 227.674 271.425 227.038C270.403 226.402 269.255 226.084 267.983 226.084C266.987 226.084 266.111 226.268 265.355 226.638C264.073 227.263 263.662 228.207 263.655 228.218H263.53V221.555C263.53 221.248 263.281 220.999 262.974 220.999L262.973 221ZM263.276 233.32C263.276 230.989 265.128 229.099 267.413 229.099C269.698 229.099 271.55 230.989 271.55 233.32C271.55 235.651 269.698 237.542 267.413 237.542C265.128 237.542 263.276 235.651 263.276 233.32Z" fill="white"/>
<rect x="119.076" y="21.5608" width="210.218" height="125.772" rx="17.9674" fill="#4B99C3"/>
<rect x="345.464" y="21.5608" width="210.218" height="125.772" rx="17.9674" fill="#EAF8FF"/>
<rect x="119.076" y="318.022" width="321.616" height="125.772" rx="17.9674" fill="#4B99C3"/>
<rect x="119.076" y="465.354" width="181.47" height="125.772" rx="17.9674" fill="#4B99C3"/>
<rect x="329.294" y="465.354" width="181.47" height="125.772" rx="17.9674" fill="#4B99C3"/>
</g>
<defs>
<filter id="filter0_d_86_561" x="41.6364" y="249.567" width="525.006" height="370.487" filterUnits="userSpaceOnUse" color-interpolation-filters="sRGB">
<feFlood flood-opacity="0" result="BackgroundImageFix"/>
<feColorMatrix in="SourceAlpha" type="matrix" values="0 0 0 0 0 0 0 0 0 0 0 0 0 0 0 0 0 0 127 0" result="hardAlpha"/>
<feOffset dy="7.18694"/>
<feGaussianBlur stdDeviation="23.4474"/>
<feComposite in2="hardAlpha" operator="out"/>
<feColorMatrix type="matrix" values="0 0 0 0 0 0 0 0 0 0 0 0 0 0 0 0 0 0 0.1 0"/>
<feBlend mode="normal" in2="BackgroundImageFix" result="effect1_dropShadow_86_561"/>
<feBlend mode="normal" in="SourceGraphic" in2="effect1_dropShadow_86_561" result="shape"/>
</filter>
<filter id="filter1_d_86_561" x="41.6364" y="-140.325" width="525.006" height="370.487" filterUnits="userSpaceOnUse" color-interpolation-filters="sRGB">
<feFlood flood-opacity="0" result="BackgroundImageFix"/>
<feColorMatrix in="SourceAlpha" type="matrix" values="0 0 0 0 0 0 0 0 0 0 0 0 0 0 0 0 0 0 127 0" result="hardAlpha"/>
<feOffset dy="7.18694"/>
<feGaussianBlur stdDeviation="23.4474"/>
<feComposite in2="hardAlpha" operator="out"/>
<feColorMatrix type="matrix" values="0 0 0 0 0 0 0 0 0 0 0 0 0 0 0 0 0 0 0.1 0"/>
<feBlend mode="normal" in2="BackgroundImageFix" result="effect1_dropShadow_86_561"/>
<feBlend mode="normal" in="SourceGraphic" in2="effect1_dropShadow_86_561" result="shape"/>
</filter>
<linearGradient id="paint0_linear_86_561" x1="225.583" y1="176.08" x2="225.583" y2="289.274" gradientUnits="userSpaceOnUse">
<stop stop-color="#00A6FF" stop-opacity="0"/>
<stop offset="0.504808" stop-color="#00A6FF"/>
<stop offset="1" stop-color="#00A6FF" stop-opacity="0"/>
</linearGradient>
<clipPath id="clip0_86_561">
<rect width="495.899" height="344.973" fill="white" transform="translate(0.491211 495.899) rotate(-90)"/>
</clipPath>
</defs>
</svg>
