<svg width="484" height="496" viewBox="0 0 484 496" fill="none" xmlns="http://www.w3.org/2000/svg">
<g clip-path="url(#clip0_86_594)">
<ellipse cx="415.189" cy="310.936" rx="382.705" ry="382.705" transform="rotate(-90 415.189 310.936)" fill="#264B5E" fill-opacity="0.61"/>
<g filter="url(#filter0_d_86_594)">
<rect x="64.8247" y="48.6128" width="391.688" height="569.58" rx="16.3204" fill="#1D5B7D"/>
</g>
<path d="M111.922 175.45V125.769H115.104V175.45H111.922ZM121.877 141.178C121.67 139.341 120.817 137.917 119.316 136.908C117.815 135.886 115.926 135.375 113.649 135.375C112.019 135.375 110.609 135.634 109.418 136.151C108.228 136.656 107.303 137.355 106.643 138.247C105.996 139.127 105.673 140.13 105.673 141.255C105.673 142.2 105.893 143.015 106.333 143.701C106.785 144.386 107.374 144.962 108.099 145.428C108.836 145.881 109.625 146.262 110.466 146.573C111.307 146.871 112.116 147.116 112.892 147.31L116.773 148.32C118.041 148.63 119.342 149.051 120.674 149.581C122.007 150.111 123.242 150.81 124.381 151.677C125.52 152.544 126.438 153.618 127.137 154.898C127.848 156.179 128.204 157.712 128.204 159.498C128.204 161.749 127.622 163.748 126.458 165.495C125.306 167.241 123.631 168.619 121.431 169.628C119.245 170.637 116.599 171.142 113.494 171.142C110.518 171.142 107.943 170.67 105.77 169.725C103.596 168.781 101.895 167.442 100.666 165.708C99.4367 163.961 98.7575 161.891 98.6281 159.498H104.644C104.761 160.934 105.226 162.131 106.041 163.088C106.87 164.033 107.924 164.738 109.205 165.204C110.499 165.656 111.915 165.883 113.455 165.883C115.15 165.883 116.657 165.618 117.977 165.087C119.309 164.544 120.357 163.793 121.121 162.836C121.884 161.866 122.266 160.733 122.266 159.44C122.266 158.262 121.929 157.298 121.256 156.548C120.597 155.798 119.697 155.177 118.559 154.685C117.433 154.193 116.159 153.76 114.736 153.385L110.039 152.104C106.857 151.237 104.334 149.963 102.471 148.281C100.621 146.599 99.6955 144.373 99.6955 141.605C99.6955 139.315 100.316 137.316 101.559 135.608C102.801 133.9 104.482 132.574 106.604 131.63C108.726 130.672 111.12 130.194 113.785 130.194C116.476 130.194 118.85 130.666 120.907 131.61C122.977 132.555 124.607 133.855 125.798 135.511C126.988 137.154 127.609 139.043 127.661 141.178H121.877Z" fill="#70CDFF"/>
<rect opacity="0.32" x="95.8335" y="81.2537" width="163.204" height="14.6883" rx="7.34416" fill="#70CDFF" fill-opacity="0.45"/>
<rect opacity="0.55" x="138.491" y="125.872" width="136.552" height="53.9021" rx="26.951" fill="#70CDFF"/>
<rect opacity="0.32" x="95.8335" y="275.466" width="319.879" height="14.6883" rx="7.34416" fill="#70CDFF" fill-opacity="0.45"/>
<rect opacity="0.32" x="95.8335" y="330.955" width="290.502" height="14.6883" rx="7.34416" fill="#70CDFF" fill-opacity="0.45"/>
<rect opacity="0.32" x="95.8335" y="303.21" width="267.654" height="14.6883" rx="7.34416" fill="#70CDFF" fill-opacity="0.45"/>
<rect opacity="0.32" x="95.8335" y="379.916" width="319.879" height="14.6883" rx="7.34416" fill="#70CDFF" fill-opacity="0.45"/>
<rect opacity="0.32" x="95.8335" y="435.405" width="290.502" height="14.6883" rx="7.34416" fill="#70CDFF" fill-opacity="0.45"/>
<rect opacity="0.32" x="95.8335" y="407.66" width="267.654" height="14.6883" rx="7.34416" fill="#70CDFF" fill-opacity="0.45"/>
<rect opacity="0.32" x="95.8335" y="241.193" width="319.879" height="21.2165" rx="10.6082" fill="#70CDFF" fill-opacity="0.45"/>
<path d="M95.0176 206.92H401.024" stroke="#70CDFF" stroke-opacity="0.32" stroke-width="1.63204" stroke-linecap="round"/>
<g filter="url(#filter1_d_86_594)">
<rect x="154.662" y="142.043" width="391.688" height="569.58" rx="16.3204" fill="#1D5B7D"/>
</g>
<path d="M201.294 261.693V212.012H204.477V261.693H201.294ZM211.25 227.421C211.043 225.584 210.189 224.16 208.688 223.151C207.188 222.129 205.299 221.618 203.022 221.618C201.391 221.618 199.981 221.877 198.791 222.394C197.601 222.899 196.676 223.598 196.016 224.49C195.369 225.37 195.045 226.373 195.045 227.498C195.045 228.443 195.265 229.258 195.705 229.944C196.158 230.629 196.747 231.205 197.471 231.671C198.209 232.124 198.998 232.505 199.839 232.816C200.68 233.113 201.488 233.359 202.265 233.553L206.146 234.562C207.414 234.873 208.714 235.293 210.047 235.824C211.379 236.354 212.615 237.053 213.754 237.92C214.892 238.787 215.811 239.861 216.509 241.141C217.221 242.422 217.577 243.955 217.577 245.741C217.577 247.992 216.994 249.991 215.83 251.738C214.679 253.484 213.003 254.862 210.804 255.871C208.617 256.88 205.971 257.385 202.866 257.385C199.891 257.385 197.316 256.913 195.142 255.968C192.969 255.024 191.267 253.685 190.038 251.951C188.809 250.204 188.13 248.134 188.001 245.741H194.017C194.133 247.177 194.599 248.374 195.414 249.331C196.242 250.276 197.297 250.981 198.577 251.446C199.871 251.899 201.288 252.126 202.827 252.126C204.522 252.126 206.03 251.86 207.349 251.33C208.682 250.787 209.73 250.036 210.493 249.079C211.257 248.108 211.638 246.976 211.638 245.683C211.638 244.505 211.302 243.541 210.629 242.791C209.969 242.041 209.07 241.42 207.931 240.928C206.806 240.436 205.531 240.003 204.108 239.628L199.412 238.347C196.229 237.48 193.706 236.206 191.843 234.524C189.993 232.842 189.068 230.616 189.068 227.848C189.068 225.558 189.689 223.559 190.931 221.851C192.173 220.143 193.855 218.817 195.977 217.873C198.099 216.915 200.492 216.436 203.157 216.436C205.848 216.436 208.223 216.909 210.28 217.853C212.35 218.798 213.98 220.098 215.17 221.754C216.361 223.397 216.982 225.286 217.033 227.421H211.25Z" fill="#70CDFF"/>
<rect opacity="0.55" x="227.864" y="212.115" width="136.552" height="53.9021" rx="26.951" fill="#70CDFF"/>
<rect opacity="0.32" x="185.67" y="174.683" width="163.204" height="14.6883" rx="7.34416" fill="#70CDFF" fill-opacity="0.45"/>
<rect opacity="0.32" x="185.67" y="368.896" width="319.879" height="14.6883" rx="7.34416" fill="#70CDFF" fill-opacity="0.45"/>
<rect opacity="0.32" x="185.67" y="424.385" width="290.502" height="14.6883" rx="7.34416" fill="#70CDFF" fill-opacity="0.45"/>
<rect opacity="0.32" x="185.67" y="396.64" width="267.654" height="14.6883" rx="7.34416" fill="#70CDFF" fill-opacity="0.45"/>
<rect opacity="0.32" x="185.67" y="473.346" width="319.879" height="14.6883" rx="7.34416" fill="#70CDFF" fill-opacity="0.45"/>
<rect opacity="0.32" x="185.67" y="334.623" width="319.879" height="21.2165" rx="10.6082" fill="#70CDFF" fill-opacity="0.45"/>
<path d="M184.854 300.35H490.861" stroke="#70CDFF" stroke-opacity="0.32" stroke-width="1.63204" stroke-linecap="round"/>
<g filter="url(#filter2_d_86_594)">
<rect x="248.092" y="235.474" width="391.688" height="569.58" rx="16.3204" fill="#1D5B7D"/>
</g>
<rect opacity="0.32" x="279.101" y="268.114" width="163.204" height="14.6883" rx="7.34416" fill="#70CDFF" fill-opacity="0.45"/>
<rect opacity="0.32" x="279.101" y="462.327" width="319.879" height="14.6883" rx="7.34416" fill="#70CDFF" fill-opacity="0.45"/>
<rect opacity="0.32" x="279.101" y="490.071" width="267.654" height="14.6883" rx="7.34416" fill="#70CDFF" fill-opacity="0.45"/>
<rect opacity="0.32" x="279.101" y="428.053" width="319.879" height="21.2165" rx="10.6082" fill="#70CDFF" fill-opacity="0.45"/>
<path d="M278.285 393.781H584.291" stroke="#70CDFF" stroke-opacity="0.32" stroke-width="1.63204" stroke-linecap="round"/>
<path d="M294.725 358.717V309.036H297.907V358.717H294.725ZM304.68 324.445C304.473 322.608 303.619 321.185 302.119 320.175C300.618 319.153 298.729 318.642 296.452 318.642C294.822 318.642 293.411 318.901 292.221 319.419C291.031 319.923 290.106 320.622 289.446 321.514C288.799 322.394 288.476 323.397 288.476 324.523C288.476 325.467 288.695 326.282 289.135 326.968C289.588 327.654 290.177 328.229 290.901 328.695C291.639 329.148 292.428 329.53 293.269 329.84C294.11 330.138 294.919 330.383 295.695 330.577L299.576 331.587C300.844 331.897 302.144 332.318 303.477 332.848C304.81 333.379 306.045 334.077 307.184 334.944C308.322 335.811 309.241 336.885 309.939 338.166C310.651 339.446 311.007 340.98 311.007 342.765C311.007 345.016 310.425 347.015 309.26 348.762C308.109 350.508 306.433 351.886 304.234 352.895C302.047 353.905 299.402 354.409 296.296 354.409C293.321 354.409 290.746 353.937 288.573 352.992C286.399 352.048 284.698 350.709 283.469 348.975C282.239 347.229 281.56 345.159 281.431 342.765H287.447C287.563 344.201 288.029 345.398 288.844 346.355C289.672 347.3 290.727 348.005 292.008 348.471C293.301 348.923 294.718 349.15 296.258 349.15C297.953 349.15 299.46 348.885 300.779 348.354C302.112 347.811 303.16 347.06 303.923 346.103C304.687 345.133 305.068 344.001 305.068 342.707C305.068 341.529 304.732 340.566 304.059 339.815C303.399 339.065 302.5 338.444 301.362 337.952C300.236 337.46 298.962 337.027 297.539 336.652L292.842 335.371C289.659 334.504 287.136 333.23 285.273 331.548C283.423 329.866 282.498 327.641 282.498 324.872C282.498 322.582 283.119 320.583 284.361 318.875C285.603 317.167 287.285 315.841 289.407 314.897C291.529 313.939 293.922 313.461 296.588 313.461C299.279 313.461 301.653 313.933 303.71 314.877C305.78 315.822 307.41 317.122 308.6 318.778C309.791 320.421 310.412 322.31 310.463 324.445H304.68Z" fill="#70CDFF"/>
<rect opacity="0.55" x="321.294" y="309.139" width="136.552" height="53.9021" rx="26.951" fill="#70CDFF"/>
</g>
<defs>
<filter id="filter0_d_86_594" x="22.2286" y="12.5448" width="476.881" height="654.773" filterUnits="userSpaceOnUse" color-interpolation-filters="sRGB">
<feFlood flood-opacity="0" result="BackgroundImageFix"/>
<feColorMatrix in="SourceAlpha" type="matrix" values="0 0 0 0 0 0 0 0 0 0 0 0 0 0 0 0 0 0 127 0" result="hardAlpha"/>
<feOffset dy="6.52814"/>
<feGaussianBlur stdDeviation="21.2981"/>
<feComposite in2="hardAlpha" operator="out"/>
<feColorMatrix type="matrix" values="0 0 0 0 0 0 0 0 0 0 0 0 0 0 0 0 0 0 0.1 0"/>
<feBlend mode="normal" in2="BackgroundImageFix" result="effect1_dropShadow_86_594"/>
<feBlend mode="normal" in="SourceGraphic" in2="effect1_dropShadow_86_594" result="shape"/>
</filter>
<filter id="filter1_d_86_594" x="112.066" y="105.975" width="476.881" height="654.773" filterUnits="userSpaceOnUse" color-interpolation-filters="sRGB">
<feFlood flood-opacity="0" result="BackgroundImageFix"/>
<feColorMatrix in="SourceAlpha" type="matrix" values="0 0 0 0 0 0 0 0 0 0 0 0 0 0 0 0 0 0 127 0" result="hardAlpha"/>
<feOffset dy="6.52814"/>
<feGaussianBlur stdDeviation="21.2981"/>
<feComposite in2="hardAlpha" operator="out"/>
<feColorMatrix type="matrix" values="0 0 0 0 0 0 0 0 0 0 0 0 0 0 0 0 0 0 0.1 0"/>
<feBlend mode="normal" in2="BackgroundImageFix" result="effect1_dropShadow_86_594"/>
<feBlend mode="normal" in="SourceGraphic" in2="effect1_dropShadow_86_594" result="shape"/>
</filter>
<filter id="filter2_d_86_594" x="205.496" y="199.406" width="476.881" height="654.773" filterUnits="userSpaceOnUse" color-interpolation-filters="sRGB">
<feFlood flood-opacity="0" result="BackgroundImageFix"/>
<feColorMatrix in="SourceAlpha" type="matrix" values="0 0 0 0 0 0 0 0 0 0 0 0 0 0 0 0 0 0 127 0" result="hardAlpha"/>
<feOffset dy="6.52814"/>
<feGaussianBlur stdDeviation="21.2981"/>
<feComposite in2="hardAlpha" operator="out"/>
<feColorMatrix type="matrix" values="0 0 0 0 0 0 0 0 0 0 0 0 0 0 0 0 0 0 0.1 0"/>
<feBlend mode="normal" in2="BackgroundImageFix" result="effect1_dropShadow_86_594"/>
<feBlend mode="normal" in="SourceGraphic" in2="effect1_dropShadow_86_594" result="shape"/>
</filter>
<clipPath id="clip0_86_594">
<rect width="495.899" height="483.322" fill="white" transform="translate(0.142578 496) rotate(-90)"/>
</clipPath>
</defs>
</svg>
