<svg width="485" height="496" viewBox="0 0 485 496" fill="none" xmlns="http://www.w3.org/2000/svg">
<g clip-path="url(#clip0_86_497)">
<ellipse cx="415.978" cy="310.936" rx="382.705" ry="382.705" transform="rotate(-90 415.978 310.936)" fill="#D9ECF6"/>
<g filter="url(#filter0_d_86_497)">
<rect x="65.6143" y="48.6128" width="391.688" height="569.58" rx="16.3204" fill="white"/>
</g>
<path d="M112.711 175.45V125.769H115.894V175.45H112.711ZM122.667 141.178C122.46 139.341 121.606 137.917 120.105 136.908C118.604 135.886 116.715 135.375 114.438 135.375C112.808 135.375 111.398 135.634 110.208 136.151C109.017 136.656 108.092 137.355 107.432 138.247C106.786 139.127 106.462 140.13 106.462 141.255C106.462 142.2 106.682 143.015 107.122 143.701C107.575 144.386 108.163 144.962 108.888 145.428C109.625 145.881 110.415 146.262 111.256 146.573C112.097 146.871 112.905 147.116 113.681 147.31L117.563 148.32C118.831 148.63 120.131 149.051 121.464 149.581C122.796 150.111 124.032 150.81 125.17 151.677C126.309 152.544 127.227 153.618 127.926 154.898C128.638 156.179 128.993 157.712 128.993 159.498C128.993 161.749 128.411 163.748 127.247 165.495C126.095 167.241 124.42 168.619 122.22 169.628C120.034 170.637 117.388 171.142 114.283 171.142C111.307 171.142 108.733 170.67 106.559 169.725C104.386 168.781 102.684 167.442 101.455 165.708C100.226 163.961 99.5468 161.891 99.4174 159.498H105.434C105.55 160.934 106.016 162.131 106.831 163.088C107.659 164.033 108.713 164.738 109.994 165.204C111.288 165.656 112.705 165.883 114.244 165.883C115.939 165.883 117.446 165.618 118.766 165.087C120.099 164.544 121.147 163.793 121.91 162.836C122.673 161.866 123.055 160.733 123.055 159.44C123.055 158.262 122.719 157.298 122.046 156.548C121.386 155.798 120.487 155.177 119.348 154.685C118.223 154.193 116.948 153.76 115.525 153.385L110.829 152.104C107.646 151.237 105.123 149.963 103.26 148.281C101.41 146.599 100.485 144.373 100.485 141.605C100.485 139.315 101.106 137.316 102.348 135.608C103.59 133.9 105.272 132.574 107.394 131.63C109.515 130.672 111.909 130.194 114.574 130.194C117.265 130.194 119.639 130.666 121.696 131.61C123.767 132.555 125.397 133.855 126.587 135.511C127.777 137.154 128.398 139.043 128.45 141.178H122.667Z" fill="#70CDFF"/>
<rect opacity="0.32" x="96.6228" y="81.2537" width="163.204" height="14.6883" rx="7.34416" fill="#70CDFF" fill-opacity="0.45"/>
<rect opacity="0.55" x="139.281" y="125.872" width="136.552" height="53.9021" rx="26.951" fill="#70CDFF"/>
<rect opacity="0.32" x="96.6228" y="275.466" width="319.879" height="14.6883" rx="7.34416" fill="#70CDFF" fill-opacity="0.45"/>
<rect opacity="0.32" x="96.6228" y="330.955" width="290.502" height="14.6883" rx="7.34416" fill="#70CDFF" fill-opacity="0.45"/>
<rect opacity="0.32" x="96.6228" y="303.21" width="267.654" height="14.6883" rx="7.34416" fill="#70CDFF" fill-opacity="0.45"/>
<rect opacity="0.32" x="96.6228" y="379.916" width="319.879" height="14.6883" rx="7.34416" fill="#70CDFF" fill-opacity="0.45"/>
<rect opacity="0.32" x="96.6228" y="435.405" width="290.502" height="14.6883" rx="7.34416" fill="#70CDFF" fill-opacity="0.45"/>
<rect opacity="0.32" x="96.6228" y="407.66" width="267.654" height="14.6883" rx="7.34416" fill="#70CDFF" fill-opacity="0.45"/>
<rect opacity="0.32" x="96.6228" y="241.193" width="319.879" height="21.2165" rx="10.6082" fill="#70CDFF" fill-opacity="0.45"/>
<path d="M95.8069 206.92H401.813" stroke="#70CDFF" stroke-opacity="0.32" stroke-width="1.63204" stroke-linecap="round"/>
<g filter="url(#filter1_d_86_497)">
<rect x="155.451" y="142.043" width="391.688" height="569.58" rx="16.3204" fill="white"/>
</g>
<path d="M202.084 261.693V212.012H205.267V261.693H202.084ZM212.04 227.421C211.833 225.584 210.979 224.16 209.478 223.151C207.977 222.129 206.088 221.618 203.811 221.618C202.181 221.618 200.771 221.877 199.58 222.394C198.39 222.899 197.465 223.598 196.805 224.49C196.158 225.37 195.835 226.373 195.835 227.498C195.835 228.443 196.055 229.258 196.495 229.944C196.948 230.629 197.536 231.205 198.261 231.671C198.998 232.124 199.787 232.505 200.628 232.816C201.469 233.113 202.278 233.359 203.054 233.553L206.936 234.562C208.204 234.873 209.504 235.293 210.836 235.824C212.169 236.354 213.405 237.053 214.543 237.92C215.682 238.787 216.6 239.861 217.299 241.141C218.01 242.422 218.366 243.955 218.366 245.741C218.366 247.992 217.784 249.991 216.62 251.738C215.468 253.484 213.793 254.862 211.593 255.871C209.407 256.88 206.761 257.385 203.656 257.385C200.68 257.385 198.105 256.913 195.932 255.968C193.758 255.024 192.057 253.685 190.828 251.951C189.599 250.204 188.92 248.134 188.79 245.741H194.806C194.923 247.177 195.389 248.374 196.204 249.331C197.032 250.276 198.086 250.981 199.367 251.446C200.661 251.899 202.077 252.126 203.617 252.126C205.312 252.126 206.819 251.86 208.139 251.33C209.471 250.787 210.519 250.036 211.283 249.079C212.046 248.108 212.428 246.976 212.428 245.683C212.428 244.505 212.091 243.541 211.419 242.791C210.759 242.041 209.86 241.42 208.721 240.928C207.595 240.436 206.321 240.003 204.898 239.628L200.201 238.347C197.019 237.48 194.496 236.206 192.633 234.524C190.783 232.842 189.858 230.616 189.858 227.848C189.858 225.558 190.479 223.559 191.721 221.851C192.963 220.143 194.645 218.817 196.766 217.873C198.888 216.915 201.282 216.436 203.947 216.436C206.638 216.436 209.012 216.909 211.069 217.853C213.139 218.798 214.769 220.098 215.96 221.754C217.15 223.397 217.771 225.286 217.823 227.421H212.04Z" fill="#70CDFF"/>
<rect opacity="0.55" x="228.653" y="212.115" width="136.552" height="53.9021" rx="26.951" fill="#70CDFF"/>
<rect opacity="0.32" x="186.46" y="174.683" width="163.204" height="14.6883" rx="7.34416" fill="#70CDFF" fill-opacity="0.45"/>
<rect opacity="0.32" x="186.46" y="368.896" width="319.879" height="14.6883" rx="7.34416" fill="#70CDFF" fill-opacity="0.45"/>
<rect opacity="0.32" x="186.46" y="424.385" width="290.502" height="14.6883" rx="7.34416" fill="#70CDFF" fill-opacity="0.45"/>
<rect opacity="0.32" x="186.46" y="396.64" width="267.654" height="14.6883" rx="7.34416" fill="#70CDFF" fill-opacity="0.45"/>
<rect opacity="0.32" x="186.46" y="473.346" width="319.879" height="14.6883" rx="7.34416" fill="#70CDFF" fill-opacity="0.45"/>
<rect opacity="0.32" x="186.46" y="334.623" width="319.879" height="21.2165" rx="10.6082" fill="#70CDFF" fill-opacity="0.45"/>
<path d="M185.644 300.35H491.65" stroke="#70CDFF" stroke-opacity="0.32" stroke-width="1.63204" stroke-linecap="round"/>
<g filter="url(#filter2_d_86_497)">
<rect x="248.881" y="235.474" width="391.688" height="569.58" rx="16.3204" fill="white"/>
</g>
<rect opacity="0.32" x="279.89" y="268.114" width="163.204" height="14.6883" rx="7.34416" fill="#70CDFF" fill-opacity="0.45"/>
<rect opacity="0.32" x="279.89" y="462.327" width="319.879" height="14.6883" rx="7.34416" fill="#70CDFF" fill-opacity="0.45"/>
<rect opacity="0.32" x="279.89" y="490.071" width="267.654" height="14.6883" rx="7.34416" fill="#70CDFF" fill-opacity="0.45"/>
<rect opacity="0.32" x="279.89" y="428.053" width="319.879" height="21.2165" rx="10.6082" fill="#70CDFF" fill-opacity="0.45"/>
<path d="M279.074 393.781H585.081" stroke="#70CDFF" stroke-opacity="0.32" stroke-width="1.63204" stroke-linecap="round"/>
<path d="M295.514 358.717V309.036H298.697V358.717H295.514ZM305.47 324.445C305.263 322.608 304.409 321.185 302.908 320.175C301.407 319.153 299.518 318.642 297.241 318.642C295.611 318.642 294.201 318.901 293.011 319.419C291.82 319.923 290.895 320.622 290.235 321.514C289.589 322.394 289.265 323.397 289.265 324.523C289.265 325.467 289.485 326.282 289.925 326.968C290.378 327.654 290.966 328.229 291.691 328.695C292.428 329.148 293.218 329.53 294.059 329.84C294.9 330.138 295.708 330.383 296.484 330.577L300.366 331.587C301.634 331.897 302.934 332.318 304.267 332.848C305.599 333.379 306.835 334.077 307.973 334.944C309.112 335.811 310.03 336.885 310.729 338.166C311.441 339.446 311.796 340.98 311.796 342.765C311.796 345.016 311.214 347.015 310.05 348.762C308.898 350.508 307.223 351.886 305.023 352.895C302.837 353.905 300.191 354.409 297.086 354.409C294.11 354.409 291.536 353.937 289.362 352.992C287.189 352.048 285.487 350.709 284.258 348.975C283.029 347.229 282.35 345.159 282.22 342.765H288.236C288.353 344.201 288.819 345.398 289.634 346.355C290.462 347.3 291.516 348.005 292.797 348.471C294.091 348.923 295.508 349.15 297.047 349.15C298.742 349.15 300.249 348.885 301.569 348.354C302.902 347.811 303.95 347.06 304.713 346.103C305.476 345.133 305.858 344.001 305.858 342.707C305.858 341.529 305.522 340.566 304.849 339.815C304.189 339.065 303.29 338.444 302.151 337.952C301.026 337.46 299.751 337.027 298.328 336.652L293.632 335.371C290.449 334.504 287.926 333.23 286.063 331.548C284.213 329.866 283.288 327.641 283.288 324.872C283.288 322.582 283.909 320.583 285.151 318.875C286.393 317.167 288.075 315.841 290.197 314.897C292.318 313.939 294.712 313.461 297.377 313.461C300.068 313.461 302.442 313.933 304.499 314.877C306.569 315.822 308.2 317.122 309.39 318.778C310.58 320.421 311.201 322.31 311.253 324.445H305.47Z" fill="#70CDFF"/>
<rect opacity="0.55" x="322.083" y="309.139" width="136.552" height="53.9021" rx="26.951" fill="#70CDFF"/>
</g>
<defs>
<filter id="filter0_d_86_497" x="23.0181" y="12.5448" width="476.881" height="654.773" filterUnits="userSpaceOnUse" color-interpolation-filters="sRGB">
<feFlood flood-opacity="0" result="BackgroundImageFix"/>
<feColorMatrix in="SourceAlpha" type="matrix" values="0 0 0 0 0 0 0 0 0 0 0 0 0 0 0 0 0 0 127 0" result="hardAlpha"/>
<feOffset dy="6.52814"/>
<feGaussianBlur stdDeviation="21.2981"/>
<feComposite in2="hardAlpha" operator="out"/>
<feColorMatrix type="matrix" values="0 0 0 0 0 0 0 0 0 0 0 0 0 0 0 0 0 0 0.1 0"/>
<feBlend mode="normal" in2="BackgroundImageFix" result="effect1_dropShadow_86_497"/>
<feBlend mode="normal" in="SourceGraphic" in2="effect1_dropShadow_86_497" result="shape"/>
</filter>
<filter id="filter1_d_86_497" x="112.855" y="105.975" width="476.88" height="654.773" filterUnits="userSpaceOnUse" color-interpolation-filters="sRGB">
<feFlood flood-opacity="0" result="BackgroundImageFix"/>
<feColorMatrix in="SourceAlpha" type="matrix" values="0 0 0 0 0 0 0 0 0 0 0 0 0 0 0 0 0 0 127 0" result="hardAlpha"/>
<feOffset dy="6.52814"/>
<feGaussianBlur stdDeviation="21.2981"/>
<feComposite in2="hardAlpha" operator="out"/>
<feColorMatrix type="matrix" values="0 0 0 0 0 0 0 0 0 0 0 0 0 0 0 0 0 0 0.1 0"/>
<feBlend mode="normal" in2="BackgroundImageFix" result="effect1_dropShadow_86_497"/>
<feBlend mode="normal" in="SourceGraphic" in2="effect1_dropShadow_86_497" result="shape"/>
</filter>
<filter id="filter2_d_86_497" x="206.285" y="199.406" width="476.881" height="654.773" filterUnits="userSpaceOnUse" color-interpolation-filters="sRGB">
<feFlood flood-opacity="0" result="BackgroundImageFix"/>
<feColorMatrix in="SourceAlpha" type="matrix" values="0 0 0 0 0 0 0 0 0 0 0 0 0 0 0 0 0 0 127 0" result="hardAlpha"/>
<feOffset dy="6.52814"/>
<feGaussianBlur stdDeviation="21.2981"/>
<feComposite in2="hardAlpha" operator="out"/>
<feColorMatrix type="matrix" values="0 0 0 0 0 0 0 0 0 0 0 0 0 0 0 0 0 0 0.1 0"/>
<feBlend mode="normal" in2="BackgroundImageFix" result="effect1_dropShadow_86_497"/>
<feBlend mode="normal" in="SourceGraphic" in2="effect1_dropShadow_86_497" result="shape"/>
</filter>
<clipPath id="clip0_86_497">
<rect width="495.899" height="483.322" fill="white" transform="translate(0.931641 496) rotate(-90)"/>
</clipPath>
</defs>
</svg>
