<svg width="432" height="496" viewBox="0 0 432 496" fill="none" xmlns="http://www.w3.org/2000/svg">
<g clip-path="url(#clip0_86_450)">
<circle cx="482.209" cy="247.95" r="433.013" transform="rotate(-90 482.209 247.95)" fill="#D9ECF6"/>
<g filter="url(#filter0_d_86_450)">
<rect x="68.96" y="41.325" width="431.217" height="627.061" rx="17.9674" fill="white"/>
</g>
<rect opacity="0.32" x="103.098" y="77.2595" width="179.674" height="16.1706" rx="8.08531" fill="#70CDFF" fill-opacity="0.45"/>
<rect opacity="0.32" x="103.098" y="291.071" width="352.16" height="16.1706" rx="8.08531" fill="#70CDFF" fill-opacity="0.45"/>
<rect opacity="0.32" x="103.098" y="352.16" width="319.819" height="16.1706" rx="8.08531" fill="#70CDFF" fill-opacity="0.45"/>
<rect opacity="0.32" x="103.098" y="321.616" width="294.665" height="16.1706" rx="8.08531" fill="#70CDFF" fill-opacity="0.45"/>
<rect opacity="0.32" x="103.098" y="406.062" width="352.16" height="16.1706" rx="8.08531" fill="#70CDFF" fill-opacity="0.45"/>
<rect opacity="0.32" x="103.098" y="467.151" width="319.819" height="16.1706" rx="8.08531" fill="#70CDFF" fill-opacity="0.45"/>
<rect opacity="0.32" x="103.098" y="436.607" width="294.665" height="16.1706" rx="8.08531" fill="#70CDFF" fill-opacity="0.45"/>
<rect opacity="0.32" x="103.098" y="253.34" width="352.16" height="23.3576" rx="11.6788" fill="#70CDFF" fill-opacity="0.45"/>
<path d="M102.199 215.608H439.087" stroke="#70CDFF" stroke-opacity="0.32" stroke-width="1.79674" stroke-linecap="round"/>
<path d="M119.186 178.943V129.261H122.369V178.943H119.186ZM129.142 144.671C128.935 142.833 128.081 141.41 126.58 140.401C125.079 139.379 123.19 138.868 120.913 138.868C119.283 138.868 117.873 139.127 116.683 139.644C115.492 140.149 114.567 140.847 113.908 141.74C113.261 142.62 112.937 143.623 112.937 144.748C112.937 145.693 113.157 146.508 113.597 147.193C114.05 147.879 114.639 148.455 115.363 148.921C116.1 149.373 116.89 149.755 117.731 150.066C118.572 150.363 119.38 150.609 120.157 150.803L124.038 151.812C125.306 152.123 126.606 152.543 127.939 153.074C129.271 153.604 130.507 154.303 131.645 155.17C132.784 156.036 133.703 157.11 134.401 158.391C135.113 159.672 135.469 161.205 135.469 162.991C135.469 165.242 134.886 167.241 133.722 168.987C132.57 170.734 130.895 172.112 128.696 173.121C126.509 174.13 123.863 174.635 120.758 174.635C117.782 174.635 115.208 174.162 113.034 173.218C110.861 172.274 109.159 170.934 107.93 169.201C106.701 167.454 106.022 165.384 105.892 162.991H111.909C112.025 164.427 112.491 165.623 113.306 166.581C114.134 167.525 115.188 168.23 116.469 168.696C117.763 169.149 119.18 169.375 120.719 169.375C122.414 169.375 123.921 169.11 125.241 168.58C126.574 168.036 127.622 167.286 128.385 166.329C129.148 165.358 129.53 164.226 129.53 162.932C129.53 161.755 129.194 160.791 128.521 160.041C127.861 159.29 126.962 158.669 125.823 158.178C124.698 157.686 123.423 157.253 122 156.877L117.304 155.597C114.121 154.73 111.598 153.455 109.735 151.773C107.885 150.091 106.96 147.866 106.96 145.097C106.96 142.807 107.581 140.809 108.823 139.101C110.065 137.393 111.747 136.067 113.869 135.122C115.991 134.165 118.384 133.686 121.049 133.686C123.74 133.686 126.114 134.158 128.172 135.103C130.242 136.047 131.872 137.348 133.062 139.004C134.252 140.647 134.873 142.536 134.925 144.671H129.142Z" fill="#70CDFF"/>
<rect opacity="0.55" x="145.755" y="129.365" width="136.552" height="53.9021" rx="26.951" fill="#70CDFF"/>
</g>
<defs>
<filter id="filter0_d_86_450" x="22.0652" y="1.61709" width="525.006" height="720.85" filterUnits="userSpaceOnUse" color-interpolation-filters="sRGB">
<feFlood flood-opacity="0" result="BackgroundImageFix"/>
<feColorMatrix in="SourceAlpha" type="matrix" values="0 0 0 0 0 0 0 0 0 0 0 0 0 0 0 0 0 0 127 0" result="hardAlpha"/>
<feOffset dy="7.18694"/>
<feGaussianBlur stdDeviation="23.4474"/>
<feComposite in2="hardAlpha" operator="out"/>
<feColorMatrix type="matrix" values="0 0 0 0 0 0 0 0 0 0 0 0 0 0 0 0 0 0 0.1 0"/>
<feBlend mode="normal" in2="BackgroundImageFix" result="effect1_dropShadow_86_450"/>
<feBlend mode="normal" in="SourceGraphic" in2="effect1_dropShadow_86_450" result="shape"/>
</filter>
<clipPath id="clip0_86_450">
<rect width="495.899" height="431.217" fill="white" transform="translate(0.684082 495.899) rotate(-90)"/>
</clipPath>
</defs>
</svg>
