<svg width="433" height="496" viewBox="0 0 433 496" fill="none" xmlns="http://www.w3.org/2000/svg">
<g clip-path="url(#clip0_86_547)">
<circle cx="482.42" cy="247.95" r="433.013" transform="rotate(-90 482.42 247.95)" fill="#264B5E" fill-opacity="0.61"/>
<g filter="url(#filter0_d_86_547)">
<rect x="69.1704" y="41.325" width="431.217" height="627.061" rx="17.9674" fill="#1D5B7D"/>
</g>
<rect opacity="0.32" x="103.309" y="77.2595" width="179.674" height="16.1706" rx="8.08531" fill="#70CDFF" fill-opacity="0.45"/>
<rect opacity="0.32" x="103.309" y="291.071" width="352.16" height="16.1706" rx="8.08531" fill="#70CDFF" fill-opacity="0.45"/>
<rect opacity="0.32" x="103.309" y="352.16" width="319.819" height="16.1706" rx="8.08531" fill="#70CDFF" fill-opacity="0.45"/>
<rect opacity="0.32" x="103.309" y="321.616" width="294.665" height="16.1706" rx="8.08531" fill="#70CDFF" fill-opacity="0.45"/>
<rect opacity="0.32" x="103.309" y="406.062" width="352.16" height="16.1706" rx="8.08531" fill="#70CDFF" fill-opacity="0.45"/>
<rect opacity="0.32" x="103.309" y="467.151" width="319.819" height="16.1706" rx="8.08531" fill="#70CDFF" fill-opacity="0.45"/>
<rect opacity="0.32" x="103.309" y="436.607" width="294.665" height="16.1706" rx="8.08531" fill="#70CDFF" fill-opacity="0.45"/>
<rect opacity="0.32" x="103.309" y="253.34" width="352.16" height="23.3576" rx="11.6788" fill="#70CDFF" fill-opacity="0.45"/>
<path d="M102.41 215.608H439.298" stroke="#70CDFF" stroke-opacity="0.32" stroke-width="1.79674" stroke-linecap="round"/>
<path d="M119.397 178.943V129.261H122.58V178.943H119.397ZM129.353 144.671C129.146 142.833 128.292 141.41 126.791 140.401C125.29 139.379 123.401 138.868 121.124 138.868C119.494 138.868 118.084 139.127 116.893 139.644C115.703 140.149 114.778 140.847 114.118 141.74C113.471 142.62 113.148 143.623 113.148 144.748C113.148 145.693 113.368 146.508 113.808 147.193C114.261 147.879 114.849 148.455 115.574 148.921C116.311 149.373 117.1 149.755 117.941 150.066C118.782 150.363 119.591 150.609 120.367 150.803L124.249 151.812C125.516 152.123 126.817 152.543 128.149 153.074C129.482 153.604 130.718 154.303 131.856 155.17C132.995 156.036 133.913 157.11 134.612 158.391C135.323 159.672 135.679 161.205 135.679 162.991C135.679 165.242 135.097 167.241 133.933 168.987C132.781 170.734 131.106 172.112 128.906 173.121C126.72 174.13 124.074 174.635 120.969 174.635C117.993 174.635 115.418 174.162 113.245 173.218C111.071 172.274 109.37 170.934 108.141 169.201C106.912 167.454 106.233 165.384 106.103 162.991H112.119C112.236 164.427 112.702 165.623 113.517 166.581C114.345 167.525 115.399 168.23 116.68 168.696C117.974 169.149 119.39 169.375 120.93 169.375C122.625 169.375 124.132 169.11 125.452 168.58C126.784 168.036 127.832 167.286 128.596 166.329C129.359 165.358 129.741 164.226 129.741 162.932C129.741 161.755 129.404 160.791 128.732 160.041C128.072 159.29 127.173 158.669 126.034 158.178C124.908 157.686 123.634 157.253 122.211 156.877L117.514 155.597C114.332 154.73 111.809 153.455 109.946 151.773C108.096 150.091 107.171 147.866 107.171 145.097C107.171 142.807 107.792 140.809 109.034 139.101C110.276 137.393 111.958 136.067 114.079 135.122C116.201 134.165 118.595 133.686 121.26 133.686C123.951 133.686 126.325 134.158 128.382 135.103C130.452 136.047 132.082 137.348 133.273 139.004C134.463 140.647 135.084 142.536 135.136 144.671H129.353Z" fill="#70CDFF"/>
<rect opacity="0.55" x="145.966" y="129.365" width="136.552" height="53.9021" rx="26.951" fill="#70CDFF"/>
</g>
<defs>
<filter id="filter0_d_86_547" x="22.2756" y="1.61709" width="525.006" height="720.85" filterUnits="userSpaceOnUse" color-interpolation-filters="sRGB">
<feFlood flood-opacity="0" result="BackgroundImageFix"/>
<feColorMatrix in="SourceAlpha" type="matrix" values="0 0 0 0 0 0 0 0 0 0 0 0 0 0 0 0 0 0 127 0" result="hardAlpha"/>
<feOffset dy="7.18694"/>
<feGaussianBlur stdDeviation="23.4474"/>
<feComposite in2="hardAlpha" operator="out"/>
<feColorMatrix type="matrix" values="0 0 0 0 0 0 0 0 0 0 0 0 0 0 0 0 0 0 0.1 0"/>
<feBlend mode="normal" in2="BackgroundImageFix" result="effect1_dropShadow_86_547"/>
<feBlend mode="normal" in="SourceGraphic" in2="effect1_dropShadow_86_547" result="shape"/>
</filter>
<clipPath id="clip0_86_547">
<rect width="495.899" height="431.217" fill="white" transform="translate(0.894531 495.899) rotate(-90)"/>
</clipPath>
</defs>
</svg>
